<svg width="20" height="20" viewBox="0 0 20 20" fill="none" xmlns="http://www.w3.org/2000/svg">
<path d="M7.50033 10.4165H8.33366V8.74984H9.16699C9.4031 8.74984 9.60102 8.66998 9.76074 8.51025C9.92047 8.35053 10.0003 8.15262 10.0003 7.9165V7.08317C10.0003 6.84706 9.92047 6.64914 9.76074 6.48942C9.60102 6.3297 9.4031 6.24984 9.16699 6.24984H7.50033V10.4165ZM8.33366 7.9165V7.08317H9.16699V7.9165H8.33366ZM10.8337 10.4165H12.5003C12.7364 10.4165 12.9344 10.3366 13.0941 10.1769C13.2538 10.0172 13.3337 9.81928 13.3337 9.58317V7.08317C13.3337 6.84706 13.2538 6.64914 13.0941 6.48942C12.9344 6.3297 12.7364 6.24984 12.5003 6.24984H10.8337V10.4165ZM11.667 9.58317V7.08317H12.5003V9.58317H11.667ZM14.167 10.4165H15.0003V8.74984H15.8337V7.9165H15.0003V7.08317H15.8337V6.24984H14.167V10.4165ZM6.66699 14.9998C6.20866 14.9998 5.8163 14.8366 5.48991 14.5103C5.16352 14.1839 5.00033 13.7915 5.00033 13.3332V3.33317C5.00033 2.87484 5.16352 2.48248 5.48991 2.15609C5.8163 1.8297 6.20866 1.6665 6.66699 1.6665H16.667C17.1253 1.6665 17.5177 1.8297 17.8441 2.15609C18.1705 2.48248 18.3337 2.87484 18.3337 3.33317V13.3332C18.3337 13.7915 18.1705 14.1839 17.8441 14.5103C17.5177 14.8366 17.1253 14.9998 16.667 14.9998H6.66699ZM3.33366 18.3332C2.87533 18.3332 2.48296 18.17 2.15658 17.8436C1.83019 17.5172 1.66699 17.1248 1.66699 16.6665V4.99984H3.33366V16.6665H15.0003V18.3332H3.33366Z" fill="#FF3B30"/>
</svg>
